<?xml version="1.0" standalone="no"?>
<!DOCTYPE svg PUBLIC "-//W3C//DTD SVG 20010904//EN"
 "http://www.w3.org/TR/2001/REC-SVG-20010904/DTD/svg10.dtd">
<svg version="1.0" xmlns="http://www.w3.org/2000/svg"
 width="192.000000pt" height="192.000000pt" viewBox="0 0 192.000000 192.000000"
 preserveAspectRatio="xMidYMid meet">

<g transform="translate(0.000000,192.000000) scale(0.100000,-0.100000)"
fill="#ffffff" stroke="none">
<path d="M127 1905 c-50 -17 -85 -50 -108 -100 -18 -38 -19 -83 -19 -835 0
-550 4 -807 11 -835 14 -51 73 -110 124 -124 56 -15 1594 -15 1650 0 51 14
110 73 124 124 15 56 15 1594 0 1650 -14 51 -73 110 -124 124 -64 18 -1608 14
-1658 -4z m988 -310 c60 -13 195 -53 195 -58 0 -7 -48 -119 -53 -124 -4 -3
-33 3 -64 15 -268 95 -483 29 -483 -148 0 -73 33 -126 101 -161 21 -10 107
-39 193 -64 218 -63 280 -97 334 -183 84 -133 62 -334 -48 -441 -86 -83 -205
-121 -383 -121 -154 0 -367 47 -367 81 0 9 39 107 46 118 2 1 31 -6 66 -17 89
-29 169 -42 263 -42 103 0 169 20 223 66 59 50 76 86 76 164 0 122 -52 166
-268 225 -235 65 -323 116 -376 221 -21 42 -25 62 -25 149 0 92 2 104 30 154
45 81 121 137 227 165 70 19 225 19 313 1z"/>
</g>
</svg>
